<svg preserveAspectRatio="none" width="100%" height="100%" overflow="visible" style="display: block;" viewBox="0 0 25 25" fill="none" xmlns="http://www.w3.org/2000/svg">
<g id="Container">
<path id="Icon" d="M17.8571 13.4146L12.9167 8.47561C12.3016 7.86585 11.7808 7.19004 11.3542 6.44818C10.9276 5.7063 10.7143 4.89837 10.7143 4.02439C10.7143 2.90651 11.0962 1.9563 11.8601 1.17378C12.624 0.39126 13.5516 0 14.6429 0C15.2778 0 15.873 0.137195 16.4286 0.411585C16.9841 0.685976 17.4603 1.05691 17.8571 1.52439C18.254 1.05691 18.7302 0.685976 19.2857 0.411585C19.8412 0.137195 20.4365 0 21.0714 0C22.1627 0 23.0903 0.39126 23.8542 1.17378C24.6181 1.9563 25 2.90651 25 4.02439C25 4.89837 24.7916 5.7063 24.375 6.44818C23.9583 7.19004 23.4425 7.86585 22.8274 8.47561L17.8571 13.4146ZM17.8571 10L21.1011 6.73781C21.4782 6.35163 21.8254 5.94004 22.1429 5.50304C22.4603 5.06606 22.619 4.57317 22.619 4.02439C22.619 3.57724 22.4703 3.20122 22.1726 2.89634C21.875 2.59146 21.5079 2.43902 21.0714 2.43902C20.7936 2.43902 20.5308 2.49492 20.2828 2.60671C20.0348 2.7185 19.8214 2.88618 19.6429 3.10976L17.8571 5.30488L16.0714 3.10976C15.8929 2.88618 15.6795 2.7185 15.4315 2.60671C15.1835 2.49492 14.9207 2.43902 14.6429 2.43902C14.2064 2.43902 13.8392 2.59146 13.5417 2.89634C13.244 3.20122 13.0952 3.57724 13.0952 4.02439C13.0952 4.57317 13.254 5.06606 13.5714 5.50304C13.8889 5.94004 14.2361 6.35163 14.6131 6.73781L17.8571 10ZM7.14286 20.122L15.4167 22.439L22.5 20.1829C22.4008 20 22.257 19.8424 22.0685 19.7103C21.88 19.5782 21.6667 19.5122 21.4286 19.5122H15.4167C14.881 19.5122 14.4544 19.4919 14.137 19.4512C13.8194 19.4105 13.4921 19.3293 13.1548 19.2073L10.3869 18.2622L11.0417 15.8841L13.4524 16.7073C13.7897 16.809 14.1865 16.8902 14.6429 16.9512C15.0992 17.0122 15.7738 17.0529 16.6667 17.0732C16.6667 16.8496 16.6022 16.6362 16.4732 16.433C16.3443 16.2297 16.1905 16.0976 16.0119 16.0366L9.04762 13.4146H7.14286V20.122ZM0 24.3902V10.9756H9.04762C9.1865 10.9756 9.3254 10.9908 9.46429 11.0214C9.60314 11.0518 9.73219 11.0874 9.85124 11.128L16.8452 13.7805C17.5 14.0244 18.0308 14.4512 18.4375 15.061C18.8443 15.6707 19.0476 16.3415 19.0476 17.0732H21.4286C22.4207 17.0732 23.2639 17.4086 23.9583 18.0792C24.6528 18.75 25 19.6341 25 20.7317V21.9512L15.4762 25L7.14286 22.622V24.3902H0ZM2.38095 21.9512H4.7619V13.4146H2.38095V21.9512Z" fill="var(--fill-0, #60346B)"/>
</g>
</svg>
