<svg preserveAspectRatio="none" width="100%" height="100%" overflow="visible" style="display: block;" viewBox="0 0 22.5 20" fill="none" xmlns="http://www.w3.org/2000/svg">
<g id="Container">
<path id="Icon" d="M4.75 20C4.125 20 3.59375 19.7812 3.15625 19.3438C2.71875 18.9062 2.5 18.375 2.5 17.75C2.5 17.3125 2.625 16.901 2.875 16.5156C3.125 16.1302 3.45833 15.8542 3.875 15.6875L8.75 13.75V10.9375C7.625 12.25 6.31771 13.2552 4.82812 13.9531C3.33854 14.651 1.72917 15 0 15V12.5C1.41667 12.5 2.70312 12.2083 3.85938 11.625C5.01562 11.0417 6.0625 10.2083 7 9.125L8.6875 7.125C8.9375 6.83333 9.22917 6.61458 9.5625 6.46875C9.89583 6.32292 10.25 6.25 10.625 6.25H11.875C12.25 6.25 12.6042 6.32292 12.9375 6.46875C13.2708 6.61458 13.5625 6.83333 13.8125 7.125L15.5 9.125C16.4375 10.2083 17.4844 11.0417 18.6406 11.625C19.7969 12.2083 21.0833 12.5 22.5 12.5V15C20.7708 15 19.1615 14.651 17.6719 13.9531C16.1823 13.2552 14.875 12.25 13.75 10.9375V13.75L18.625 15.6875C19.0417 15.8542 19.375 16.1302 19.625 16.5156C19.875 16.901 20 17.3125 20 17.75C20 18.375 19.7812 18.9062 19.3438 19.3438C18.9062 19.7812 18.375 20 17.75 20H8.75V19.375C8.75 18.8333 8.92708 18.3854 9.28125 18.0312C9.63542 17.6771 10.0833 17.5 10.625 17.5H14.375C14.5625 17.5 14.7135 17.4427 14.8281 17.3281C14.9427 17.2135 15 17.0625 15 16.875C15 16.6875 14.9427 16.5365 14.8281 16.4219C14.7135 16.3073 14.5625 16.25 14.375 16.25H10.625C9.75 16.25 9.01042 16.5521 8.40625 17.1562C7.80208 17.7604 7.5 18.5 7.5 19.375V20H4.75V20M11.25 5C10.5625 5 9.97396 4.75521 9.48438 4.26562C8.99479 3.77604 8.75 3.1875 8.75 2.5C8.75 1.8125 8.99479 1.22396 9.48438 0.734375C9.97396 0.244792 10.5625 0 11.25 0C11.9375 0 12.526 0.244792 13.0156 0.734375C13.5052 1.22396 13.75 1.8125 13.75 2.5C13.75 3.1875 13.5052 3.77604 13.0156 4.26562C12.526 4.75521 11.9375 5 11.25 5V5" fill="var(--fill-0, #E91E63)"/>
</g>
</svg>
