<svg preserveAspectRatio="none" width="100%" height="100%" overflow="visible" style="display: block;" viewBox="0 0 13.9528 14" fill="none" xmlns="http://www.w3.org/2000/svg">
<g id="Group">
<path id="Vector" d="M4.83521 12.9115C4.75604 12.9115 4.6769 12.8886 4.60817 12.8429L3.9451 12.4021V13.1852C3.9451 13.3391 4.02359 13.4823 4.15326 13.5651L4.7234 13.9292C4.86947 14.0225 5.05611 14.0237 5.20341 13.9324L5.60039 13.6864V12.5161L5.05759 12.846C4.98987 12.8897 4.91253 12.9115 4.83521 12.9115Z" fill="var(--fill-0, #CA1670)"/>
<path id="Vector_2" d="M4.83521 10.8187C4.75604 10.8187 4.6769 10.7959 4.60817 10.7501L3.9451 10.3093V11.42C3.9579 11.4267 3.9705 11.434 3.9828 11.4422L4.83855 12.0112L5.60036 11.5482V10.4233L5.05756 10.7532C4.98987 10.7969 4.91253 10.8187 4.83521 10.8187Z" fill="var(--fill-0, #CA1670)"/>
<path id="Vector_3" d="M9.21841 8.72593C9.13924 8.72593 9.0601 8.70305 8.99137 8.65734L8.48591 8.34688V9.44714L9.22178 9.91846L10.1082 9.34637C10.119 9.3394 10.13 9.3332 10.1412 9.32735V8.20839L9.44078 8.66043C9.37304 8.70411 9.29573 8.72593 9.21841 8.72593Z" fill="var(--fill-0, #CA1670)"/>
<path id="Vector_4" d="M4.83521 8.72593C4.75604 8.72593 4.6769 8.70305 4.60817 8.65734L3.9451 8.21648V9.32724C3.9579 9.33391 3.9705 9.34126 3.9828 9.34944L4.83855 9.91843L5.60036 9.45537V8.3305L5.05756 8.6604C4.98987 8.70411 4.91253 8.72593 4.83521 8.72593Z" fill="var(--fill-0, #CA1670)"/>
<path id="Vector_5" d="M9.21841 10.8187C9.13924 10.8187 9.0601 10.7959 8.99137 10.7501L8.48591 10.4397V11.5409L9.22178 12.0112L10.1082 11.4391C10.119 11.4322 10.13 11.4259 10.1412 11.4201V10.3012L9.44078 10.7532C9.37304 10.7969 9.29573 10.8187 9.21841 10.8187Z" fill="var(--fill-0, #CA1670)"/>
<path id="Vector_6" d="M9.21841 12.9115C9.13924 12.9115 9.0601 12.8886 8.99137 12.8429L8.48591 12.5325V13.6941L8.85413 13.9292C9.0002 14.0225 9.18684 14.0237 9.33414 13.9324L9.9279 13.5644C10.0605 13.4822 10.1412 13.3373 10.1412 13.1813V12.394L9.44076 12.846C9.37304 12.8897 9.29573 12.9115 9.21841 12.9115Z" fill="var(--fill-0, #CA1670)"/>
<path id="Vector_7" d="M7.02305 8.72592C6.94202 8.72592 6.8611 8.70195 6.79139 8.65422L6.42054 8.3916V9.48484L7.03279 9.91837L7.66575 9.46707V8.36451L7.2411 8.66318C7.17434 8.70506 7.09864 8.72592 7.02305 8.72592Z" fill="var(--fill-0, #CA1670)"/>
<path id="Vector_8" d="M7.02305 12.9115C6.94202 12.9115 6.8611 12.8875 6.79139 12.8398L6.42054 12.5772V13.7018L6.76123 13.9258C6.90621 14.0211 7.09298 14.0248 7.24157 13.9352L7.66575 13.6795V12.5501L7.2411 12.8488C7.17434 12.8906 7.09864 12.9115 7.02305 12.9115Z" fill="var(--fill-0, #CA1670)"/>
<path id="Vector_9" d="M7.02305 10.8187C6.94202 10.8187 6.8611 10.7948 6.79139 10.747L6.42054 10.4844V11.5776L7.03279 12.0111L7.66575 11.5598V10.4573L7.2411 10.756C7.17434 10.7978 7.09864 10.8187 7.02305 10.8187Z" fill="var(--fill-0, #CA1670)"/>
<path id="Vector_10" d="M1.14163 5.3761C0.907344 5.3761 0.670921 5.44794 0.467414 5.59699C-0.0415998 5.96989 -0.151965 6.68479 0.220904 7.1938C0.444696 7.49934 0.79173 7.66123 1.14349 7.66123C1.37778 7.66123 1.61421 7.58942 1.81771 7.44034C2.32673 7.06747 2.43712 6.35254 2.06425 5.84353C1.84043 5.538 1.4934 5.3761 1.14163 5.3761Z" fill="var(--fill-0, #CA1670)"/>
<path id="Vector_11" d="M13.4853 5.59967C13.2818 5.45059 13.0454 5.37877 12.8111 5.37877C12.4593 5.37877 12.1123 5.54067 11.8885 5.84621C11.5156 6.35522 11.626 7.07015 12.135 7.44302C12.3385 7.59209 12.5749 7.66391 12.8093 7.66391C13.161 7.66391 13.5081 7.50201 13.7318 7.19648C14.1047 6.68746 13.9943 5.97254 13.4853 5.59967Z" fill="var(--fill-0, #CA1670)"/>
<path id="Vector_12" d="M11.7952 0.762466C11.9898 0.646579 12.0536 0.394902 11.9377 0.200307C11.8218 0.00573922 11.5701 -0.0580686 11.3755 0.0578189L6.98779 2.67099L2.60448 0.0604981C2.40994 -0.0553621 2.15824 0.00839103 2.04232 0.202959C1.92644 0.397553 1.99024 0.649231 2.18481 0.765118L6.18633 3.14826L2.64565 5.25698C2.6734 5.28998 2.70022 5.32388 2.72587 5.3589C2.86775 5.55259 2.9686 5.76392 3.03042 5.98246L3.9641 5.4264V7.24553C3.97037 7.24922 3.97671 7.25258 3.98283 7.25665L4.78426 7.78953V4.93792L5.60042 4.45184V7.36256L5.77834 7.25441C5.96913 7.13696 6.10787 7.19181 6.23486 7.26051L6.42057 7.39668V3.96341L6.98781 3.62559L7.66578 4.02935V7.37022L7.83891 7.25083C7.89447 7.21594 7.95983 7.19648 8.02749 7.19044C8.13351 7.17663 8.24363 7.19588 8.33019 7.25343L8.48593 7.35338V4.51778L9.3209 5.01504V7.76167L10.1082 7.25356C10.1189 7.24665 10.1299 7.24044 10.1411 7.23464V5.50349L10.9263 5.97114C10.9884 5.75758 11.0881 5.55112 11.2269 5.36155C11.2554 5.3227 11.2853 5.28522 11.3163 5.24886L7.78921 3.14829L11.7952 0.762466Z" fill="var(--fill-0, #CA1670)"/>
</g>
</svg>
