<svg preserveAspectRatio="none" width="100%" height="100%" overflow="visible" style="display: block;" viewBox="0 0 9.66586 14.3438" fill="none" xmlns="http://www.w3.org/2000/svg">
<g id="Container">
<path id="Icon" d="M6.00961 2.65625C6.72836 2.65625 7.35336 2.0625 7.35336 1.34375C7.35336 0.59375 6.72836 0 6.00961 0C5.29086 0 4.66586 0.59375 4.66586 1.34375C4.66586 2.0625 5.29086 2.65625 6.00961 2.65625V2.65625M9.16586 5C8.91586 5 8.66586 5.21875 8.66586 5.5V6.1875C7.85336 5.9375 7.19711 5.40625 6.82211 4.71875L6.13461 3.65625C5.88461 3.21875 5.41586 3 4.91586 3C4.38461 3 3.85336 3.34375 3.72836 3.96875L1.85336 13.5C1.75961 13.9375 2.07211 14.3438 2.50961 14.3438C2.85336 14.3438 3.13461 14.0938 3.19711 13.7812L4.29086 9L5.66586 10.3438V13.6562C5.66586 14.0312 5.97836 14.3438 6.35336 14.3438C6.69711 14.3438 7.00961 14.0312 7.00961 13.6562V9.90625C7.00961 9.53125 6.85336 9.1875 6.60336 8.9375L5.60336 8L6.00961 6C6.66586 6.78125 7.60336 7.34375 8.66586 7.5625V13.8438C8.66586 14.0938 8.91586 14.3438 9.16586 14.3438C9.44711 14.3438 9.66586 14.0938 9.66586 13.8438V5.5C9.66586 5.21875 9.44711 5 9.16586 5V5M1.97836 7.75L0.540856 7.46875C0.197106 7.40625 -0.0528939 7.0625 0.00960611 6.6875L0.540856 4.09375C0.665856 3.375 1.38461 2.875 2.10336 3.03125L2.85336 3.1875L1.97836 7.75V7.75" fill="var(--fill-0, #CA1670)"/>
</g>
</svg>
