<svg preserveAspectRatio="none" width="100%" height="100%" overflow="visible" style="display: block;" viewBox="0 0 9.17157 8" fill="none" xmlns="http://www.w3.org/2000/svg">
<path id="Vector" d="M6.35355 0.146447C6.15829 -0.0488156 5.84171 -0.0488156 5.64645 0.146447C5.45118 0.341709 5.45118 0.658291 5.64645 0.853553L6.8837 2.09081C7.28556 2.49266 7.56541 2.77306 7.76567 3.00897C7.94533 3.22059 8.03624 3.36873 8.0854 3.5H0.5C0.223858 3.5 0 3.72386 0 4C0 4.27614 0.223858 4.5 0.5 4.5H8.0854C8.03624 4.63127 7.94533 4.77941 7.76567 4.99103C7.56541 5.22694 7.28556 5.50734 6.8837 5.90919L5.64645 7.14645C5.45118 7.34171 5.45118 7.65829 5.64645 7.85355C5.84171 8.04882 6.15829 8.04882 6.35355 7.85355L7.60594 6.60116C7.98912 6.21799 8.29819 5.90893 8.52801 5.63821C8.76465 5.35947 8.94651 5.08865 9.04921 4.77254C9.21236 4.27043 9.21236 3.72957 9.04921 3.22746C8.94651 2.91135 8.76465 2.64053 8.52801 2.36179C8.29819 2.09107 7.98914 1.78202 7.60597 1.39886L6.35355 0.146447Z" fill="var(--fill-0, white)"/>
</svg>
