<svg preserveAspectRatio="none" width="100%" height="100%" overflow="visible" style="display: block;" viewBox="0 0 20.918 17.4609" fill="none" xmlns="http://www.w3.org/2000/svg">
<g id="Container">
<path id="Icon" d="M2.91797 9.90234V12.7148C2.91797 13.4648 3.29297 14.1211 3.94922 14.4961L8.96484 17.2148C9.52734 17.543 10.2773 17.543 10.8398 17.2148L15.8555 14.4961C16.5117 14.1211 16.8867 13.4648 16.8867 12.7148V9.90234L10.8398 13.2305C10.2773 13.5586 9.52734 13.5586 8.96484 13.2305L2.91797 9.90234V9.90234M8.96484 0.246094L0.527344 4.83984C-0.175781 5.21484 -0.175781 6.24609 0.527344 6.62109L8.96484 11.2148C9.52734 11.543 10.2773 11.543 10.8398 11.2148L18.9023 6.80859V12.7148C18.9023 13.2773 19.3711 13.7461 19.8867 13.7461C20.4492 13.7461 20.918 13.2773 20.918 12.7148V6.33984C20.918 5.96484 20.6836 5.63672 20.4023 5.44922L10.8398 0.246094C10.2773 -0.0820312 9.52734 -0.0820312 8.96484 0.246094V0.246094" fill="var(--fill-0, #CA1670)"/>
</g>
</svg>
