<svg preserveAspectRatio="none" width="100%" height="100%" overflow="visible" style="display: block;" viewBox="0 0 24 12" fill="none" xmlns="http://www.w3.org/2000/svg">
<g id="Container">
<path id="Icon" d="M12 6.75C13.6406 6.75 15.0469 7.125 16.2188 7.64062C17.2969 8.10938 18 9.1875 18 10.3594V11.0156C18 11.5312 17.5312 12 17.0156 12H6.98438C6.46875 12 6 11.5312 6 11.0156V10.4062C6 9.1875 6.70312 8.10938 7.78125 7.64062C8.95312 7.125 10.3594 6.75 12 6.75V6.75M3.98438 6.98438C5.10938 6.98438 6 6.09375 6 5.01562C6 3.89062 5.10938 3 3.98438 3C2.90625 3 2.01562 3.89062 2.01562 5.01562C2.01562 6.09375 2.90625 6.98438 3.98438 6.98438V6.98438M5.10938 8.10938C4.78125 8.0625 4.40625 8.01562 3.98438 8.01562C3 8.01562 2.0625 8.20312 1.21875 8.57812C0.46875 8.90625 0 9.60938 0 10.4531V11.0156C0 11.5312 0.46875 12 0.984375 12H4.5V10.4062C4.5 9.5625 4.73438 8.76562 5.10938 8.10938V8.10938M20.0156 6.98438C21.0938 6.98438 21.9844 6.09375 21.9844 5.01562C21.9844 3.89062 21.0938 3 20.0156 3C18.8906 3 18 3.89062 18 5.01562C18 6.09375 18.8906 6.98438 20.0156 6.98438V6.98438M24 10.4531C24 9.60938 23.5312 8.90625 22.7812 8.57812C21.9375 8.20312 21 8.01562 20.0156 8.01562C19.5938 8.01562 19.2188 8.0625 18.8906 8.10938C19.2656 8.76562 19.5 9.5625 19.5 10.4062V12H23.0156C23.5312 12 24 11.5312 24 11.0156V10.4531V10.4531M12 0C13.6406 0 15 1.35938 15 3C15 4.64062 13.6406 6 12 6C10.3594 6 9 4.64062 9 3C9 1.35938 10.3594 0 12 0V0" fill="var(--fill-0, #CA1670)"/>
</g>
</svg>
