<svg preserveAspectRatio="none" width="100%" height="100%" overflow="visible" style="display: block;" viewBox="0 0 22.5 25" fill="none" xmlns="http://www.w3.org/2000/svg">
<g id="Container">
<path id="Icon" d="M11.25 5C10.5625 5 9.97396 4.75521 9.48438 4.26562C8.99479 3.77604 8.75 3.1875 8.75 2.5C8.75 1.8125 8.99479 1.22396 9.48438 0.734375C9.97396 0.244792 10.5625 0 11.25 0C11.9375 0 12.526 0.244792 13.0156 0.734375C13.5052 1.22396 13.75 1.8125 13.75 2.5C13.75 3.1875 13.5052 3.77604 13.0156 4.26562C12.526 4.75521 11.9375 5 11.25 5V5M7.5 25V8.75C6.25 8.64583 4.97917 8.48958 3.6875 8.28125C2.39583 8.07292 1.16667 7.8125 0 7.5L0.625 5C2.25 5.4375 3.97917 5.75521 5.8125 5.95312C7.64583 6.15104 9.45833 6.25 11.25 6.25C13.0417 6.25 14.8542 6.15104 16.6875 5.95312C18.5208 5.75521 20.25 5.4375 21.875 5L22.5 7.5C21.3333 7.8125 20.1042 8.07292 18.8125 8.28125C17.5208 8.48958 16.25 8.64583 15 8.75V25H12.5V17.5H10V25H7.5V25" fill="var(--fill-0, #E91E63)"/>
</g>
</svg>
