<svg preserveAspectRatio="none" width="100%" height="100%" overflow="visible" style="display: block;" viewBox="0 0 11.6667 15.6667" fill="none" xmlns="http://www.w3.org/2000/svg">
<g id="Margin">
<path id="Icon" d="M5.01667 12.5167L9.12917 8.40417L8.3125 7.5875L5.01667 10.8833L3.35417 9.22083L2.5375 10.0375L5.01667 12.5167V12.5167M5.83333 15.6667C5.02639 15.6667 4.26806 15.5135 3.55833 15.2073C2.84861 14.901 2.23125 14.4854 1.70625 13.9604C1.18125 13.4354 0.765625 12.8181 0.459375 12.1083C0.153125 11.3986 0 10.6403 0 9.83333C0 9.02639 0.153125 8.26806 0.459375 7.55833C0.765625 6.84861 1.18125 6.23125 1.70625 5.70625C2.23125 5.18125 2.84861 4.76562 3.55833 4.45937C4.26806 4.15312 5.02639 4 5.83333 4C6.64028 4 7.39861 4.15312 8.10833 4.45937C8.81806 4.76562 9.43542 5.18125 9.96042 5.70625C10.4854 6.23125 10.901 6.84861 11.2073 7.55833C11.5135 8.26806 11.6667 9.02639 11.6667 9.83333C11.6667 10.6403 11.5135 11.3986 11.2073 12.1083C10.901 12.8181 10.4854 13.4354 9.96042 13.9604C9.43542 14.4854 8.81806 14.901 8.10833 15.2073C7.39861 15.5135 6.64028 15.6667 5.83333 15.6667V15.6667M5.83333 14.5C7.13611 14.5 8.23958 14.0479 9.14375 13.1438C10.0479 12.2396 10.5 11.1361 10.5 9.83333C10.5 8.53056 10.0479 7.42708 9.14375 6.52292C8.23958 5.61875 7.13611 5.16667 5.83333 5.16667C4.53056 5.16667 3.42708 5.61875 2.52292 6.52292C1.61875 7.42708 1.16667 8.53056 1.16667 9.83333C1.16667 11.1361 1.61875 12.2396 2.52292 13.1438C3.42708 14.0479 4.53056 14.5 5.83333 14.5V14.5M5.83333 9.83333V9.83333V9.83333V9.83333V9.83333V9.83333V9.83333V9.83333V9.83333V9.83333" fill="var(--fill-0, #E91E63)"/>
</g>
</svg>
