<svg preserveAspectRatio="none" width="100%" height="100%" overflow="visible" style="display: block;" viewBox="0 0 13.8166 18.9844" fill="none" xmlns="http://www.w3.org/2000/svg">
<g id="Container">
<path id="Icon" d="M6.9026 12C8.54323 12 9.9026 10.6406 9.9026 9V3C9.9026 1.3125 8.54323 0 6.9026 0C5.26198 0 3.9026 1.3125 3.9026 3V9C3.9026 10.6406 5.26198 12 6.9026 12V12M12.8089 9C12.3401 9 11.9182 9.32812 11.8245 9.84375C11.4026 12.1875 9.38698 13.9688 6.9026 13.9688C4.41823 13.9688 2.4026 12.1875 1.98073 9.84375C1.88698 9.32812 1.4651 9 0.99635 9C0.386975 9 -0.0817749 9.51562 0.0119751 10.125C0.480725 13.125 2.87135 15.4688 5.91823 15.8906V18C5.91823 18.5156 6.3401 18.9844 6.9026 18.9844C7.4651 18.9844 7.88698 18.5156 7.88698 18V15.8906C10.9339 15.4688 13.3245 13.125 13.7932 10.125C13.9339 9.51562 13.4182 9 12.8089 9V9" fill="var(--fill-0, #CA1670)"/>
</g>
</svg>
