<svg preserveAspectRatio="none" width="100%" height="100%" overflow="visible" style="display: block;" viewBox="0 0 40.0781 25.0781" fill="none" xmlns="http://www.w3.org/2000/svg">
<g id="Container">
<path id="Icon" d="M7.96875 25.0781C9.25781 25.0781 10.4297 24.2578 11.0156 23.2031L14.5312 16.0547C14.8828 15.3516 15 14.6484 15 13.8281V2.57812C15 1.17188 13.9453 0 12.5391 0H2.57812C1.17188 0 0 1.17188 0 2.57812V12.5391C0 13.9453 1.17188 15 2.57812 15H7.5L4.92188 20.1562C3.86719 22.3828 5.50781 25.0781 7.96875 25.0781V25.0781M32.9297 25.0781C34.2188 25.0781 35.3906 24.2578 35.9766 23.2031L39.4922 16.0547C39.8438 15.3516 40.0781 14.6484 40.0781 13.8281V2.57812C40.0781 1.17188 38.9062 0 37.5 0H27.5391C26.1328 0 25.0781 1.17188 25.0781 2.57812V12.5391C25.0781 13.9453 26.1328 15 27.5391 15H32.5781L30 20.1562C28.8281 22.3828 30.4688 25.0781 32.9297 25.0781V25.0781" fill="var(--fill-0, #CA1670)" fill-opacity="0.2"/>
</g>
</svg>
